<?xml version="1.0" encoding="utf-8"?>
<!-- Generator: Adobe Illustrator 24.1.1, SVG Export Plug-In . SVG Version: 6.00 Build 0)  -->
<svg version="1.1" id="Layer_1" xmlns="http://www.w3.org/2000/svg" xmlns:xlink="http://www.w3.org/1999/xlink" x="0px" y="0px"
	 viewBox="0 0 512 512" style="enable-background:new 0 0 512 512;" xml:space="preserve">
<style type="text/css">
	.st0{fill:#555555;}
</style>
<g>
	<path class="st0" d="M256,0c141.4,0,256,114.6,256,256S397.4,512,256,512S0,397.4,0,256S114.6,0,256,0z M312.5,175l-56.2,56.2
		L200.1,175c-6.1-6.1-15.7-6.7-22.5-1.8l-2.2,1.8c-6.8,6.8-6.8,17.9,0,24.7l56.2,56.1L175.4,312c-6.8,6.8-6.8,17.9,0,24.7
		c6.8,6.8,17.9,6.8,24.7,0l56.2-56.2l56.2,56.2c6.1,6.1,15.7,6.7,22.5,1.8l2.2-1.8c6.8-6.8,6.8-17.9,0-24.7L281,255.9l56.2-56.1
		c6.8-6.8,6.8-17.9,0-24.7C330.4,168.2,319.3,168.2,312.5,175z"/>
</g>
</svg>
